# This file uses centimeters as units for non-parametric coordinates.

mtllib Aanrecht.mtl
g default
v -1.114360 0.919108 0.560584
v 1.114360 0.919108 0.560584
v -1.114360 0.919108 -0.500000
v -1.048656 0.919108 0.500000
v 1.048656 0.919108 0.500000
v 1.114360 0.919108 -0.500000
v 1.048656 0.998787 0.500000
v -1.048656 0.998787 0.500000
v -1.048656 0.919108 -0.500000
v -1.048656 -0.001213 0.500000
v 1.048656 -0.001213 0.500000
v 1.048656 0.919108 -0.500000
v -0.069054 0.999795 -0.000111
v -0.029217 0.999795 -0.174645
v 0.082401 0.999795 -0.314610
v 0.243694 0.999795 -0.392284
v 0.422717 0.999795 -0.392284
v 0.584010 0.999795 -0.314610
v 0.695628 0.999795 -0.174644
v 0.735465 0.999795 -0.000111
v 0.695628 0.999795 0.174423
v 0.584010 0.999795 0.314388
v 0.422716 0.999795 0.392063
v 0.243694 0.999795 0.392063
v 0.082401 0.999795 0.314388
v -0.029218 0.999795 0.174423
v -1.048656 -0.001213 -0.500000
v 1.048656 -0.001213 -0.500000
v 0.407109 0.618855 -0.035590
v 0.477307 0.646119 -0.069396
v 0.432927 0.646119 -0.125047
v 0.384348 0.618855 -0.064131
v 0.415232 0.618855 0.000000
v 0.493146 0.646119 0.000000
v 0.333205 0.609613 0.000000
v 0.368796 0.646119 -0.155931
v 0.351458 0.618855 -0.079970
v 0.540279 0.690036 -0.099721
v 0.476505 0.690036 -0.179692
v 0.407109 0.618855 0.035590
v 0.477307 0.646119 0.069396
v 0.563040 0.690036 0.000000
v 0.297615 0.646119 -0.155931
v 0.314953 0.618855 -0.079970
v 0.384348 0.690036 -0.224072
v 0.592868 0.748404 -0.125047
v 0.512897 0.748404 -0.225326
v 0.384348 0.618855 0.064131
v 0.432927 0.646119 0.125047
v 0.540279 0.690036 0.099721
v 0.621409 0.748404 0.000000
v 0.233484 0.646119 -0.125047
v 0.282063 0.618855 -0.064131
v 0.282063 0.690036 -0.224072
v 0.397337 0.748404 -0.280977
v 0.632436 0.818298 -0.144102
v 0.540279 0.818298 -0.259662
v 0.351458 0.618855 0.079970
v 0.368796 0.646119 0.155931
v 0.476505 0.690036 0.179692
v 0.592868 0.748404 0.125047
v 0.665326 0.818298 0.000000
v 0.189104 0.646119 -0.069396
v 0.259302 0.618855 -0.035590
v 0.189906 0.690036 -0.179692
v 0.269074 0.748404 -0.280977
v 0.407109 0.818298 -0.323793
v 0.656999 0.896212 -0.155931
v 0.557277 0.896212 -0.280977
v 0.314953 0.618855 0.079970
v 0.297615 0.646119 0.155931
v 0.384348 0.690036 0.224072
v 0.512897 0.748404 0.225326
v 0.632435 0.818298 0.144102
v 0.692589 0.896212 0.000000
v 0.173265 0.646119 -0.000000
v 0.251179 0.618855 -0.000000
v 0.126132 0.690036 -0.099721
v 0.153514 0.748404 -0.225326
v 0.259302 0.818298 -0.323793
v 0.413176 0.896212 -0.350373
v 0.665326 0.978239 -0.159941
v 0.563040 0.978239 -0.288203
v 0.282063 0.618855 0.064131
v 0.233484 0.646119 0.125047
v 0.282062 0.690036 0.224072
v 0.397337 0.748404 0.280977
v 0.540279 0.818298 0.259662
v 0.656999 0.896212 0.155931
v 0.701831 0.978239 0.000000
v 0.189104 0.646119 0.069396
v 0.259302 0.618855 0.035590
v 0.103371 0.690036 -0.000000
v 0.073543 0.748404 -0.125047
v 0.126132 0.818298 -0.259662
v 0.253235 0.896212 -0.350373
v 0.415232 0.978239 -0.359383
v 0.189906 0.690036 0.179692
v 0.269074 0.748404 0.280977
v 0.407109 0.818298 0.323793
v 0.557277 0.896212 0.280977
v 0.665326 0.978239 0.159941
v 0.126132 0.690036 0.099721
v 0.045002 0.748404 -0.000000
v 0.033976 0.818298 -0.144102
v 0.109134 0.896212 -0.280977
v 0.251179 0.978239 -0.359383
v 0.153514 0.748404 0.225326
v 0.259302 0.818298 0.323793
v 0.413176 0.896212 0.350373
v 0.563040 0.978239 0.288203
v 0.073543 0.748404 0.125047
v 0.001085 0.818298 -0.000000
v 0.009412 0.896212 -0.155931
v 0.103371 0.978239 -0.288203
v 0.126132 0.818298 0.259662
v 0.253235 0.896212 0.350373
v 0.415232 0.978239 0.359383
v 0.033975 0.818298 0.144102
v -0.026178 0.896212 -0.000000
v 0.001085 0.978239 -0.159941
v 0.109134 0.896212 0.280977
v 0.243129 0.977231 0.394542
v 0.009412 0.896212 0.155931
v -0.035420 0.978239 -0.000000
v 0.080816 0.977231 0.316376
v 0.001085 0.978239 0.159941
v 1.114360 0.979078 0.560584
v 1.094651 0.998787 0.540874
v -1.114360 0.979078 0.560584
v -1.094651 0.998787 0.540874
v -1.114360 0.979078 -0.500000
v -1.094651 0.998787 -0.480291
v 1.094651 0.998787 -0.480291
v 1.114360 0.979078 -0.500000
v -1.048656 0.976489 -0.500000
v -1.033907 0.998787 -0.483276
v 1.048656 0.998787 -0.480291
v 1.048656 0.979078 -0.500000
vt 0.186764 0.524294
vt 0.428034 0.685528
vt -0.015191 0.381815
vt 0.278214 0.394705
vt 0.506412 0.589478
vt 0.239112 0.705448
vt 0.241865 0.729731
vt 0.254876 0.750438
vt 0.275624 0.763441
vt 0.299960 0.766116
vt 0.323080 0.758074
vt 0.340451 0.740902
vt 0.348603 0.717932
vt 0.345912 0.693743
vt 0.332877 0.673085
vt 0.312041 0.660010
vt 0.287570 0.657251
vt 0.264373 0.665162
vt 0.334501 0.830690
vt 0.125705 0.241471
vt 0.024510 0.784994
vt 0.267618 0.937418
vt 0.194932 1.053356
vt -0.048201 0.900929
vt 0.595915 0.676318
vt 0.296825 0.716199
vt 0.299931 0.721134
vt 0.295167 0.722786
vt 0.294551 0.717047
vt 0.298630 0.714560
vt 0.303510 0.717580
vt 0.293907 0.711925
vt 0.290123 0.722187
vt 0.292194 0.716769
vt 0.303156 0.726277
vt 0.295828 0.728822
vt 0.299428 0.712316
vt 0.305162 0.712798
vt 0.294653 0.711173
vt 0.308662 0.720801
vt 0.293692 0.712021
vt 0.285776 0.719419
vt 0.289941 0.715209
vt 0.288091 0.727920
vt 0.306632 0.731831
vt 0.296548 0.735328
vt 0.298941 0.709617
vt 0.304542 0.707703
vt 0.294315 0.711139
vt 0.311221 0.713477
vt 0.314195 0.724321
vt 0.294810 0.710744
vt 0.282995 0.715118
vt 0.288399 0.713080
vt 0.281475 0.723746
vt 0.285920 0.734124
vt 0.310511 0.738001
vt 0.297339 0.742571
vt 0.297630 0.707283
vt 0.301844 0.703324
vt 0.292526 0.712173
vt 0.310339 0.705728
vt 0.317732 0.714258
vt 0.320356 0.728224
vt 0.293870 0.710478
vt 0.282400 0.710094
vt 0.288037 0.710733
vt 0.277296 0.717162
vt 0.276836 0.728414
vt 0.283511 0.741002
vt 0.314923 0.745056
vt 0.298264 0.750848
vt 0.295647 0.705920
vt 0.297560 0.700573
vt 0.292688 0.711425
vt 0.306223 0.699051
vt 0.316558 0.703617
vt 0.324983 0.715120
vt 0.327435 0.732679
vt 0.293203 0.710990
vt 0.284067 0.705335
vt 0.288935 0.708490
vt 0.276389 0.709443
vt 0.271119 0.719369
vt 0.271679 0.733594
vt 0.280735 0.748892
vt 0.320187 0.753436
vt 0.299366 0.760673
vt 0.293232 0.705765
vt 0.292499 0.700017
vt 0.293663 0.710974
vt 0.299616 0.694806
vt 0.310904 0.694448
vt 0.323480 0.701278
vt 0.333287 0.716114
vt 0.335817 0.737969
vt 0.293254 0.711656
vt 0.287685 0.701730
vt 0.290828 0.706721
vt 0.278934 0.702110
vt 0.269902 0.708740
vt 0.264248 0.721814
vt 0.265762 0.739529
vt 0.277446 0.758256
vt 0.294440 0.711092
vt 0.291821 0.693922
vt 0.301836 0.688564
vt 0.316122 0.689362
vt 0.331384 0.698618
vt 0.343158 0.717277
vt 0.293826 0.711816
vt 0.284443 0.696555
vt 0.273391 0.698638
vt 0.262675 0.707960
vt 0.256382 0.724605
vt 0.258758 0.746552
vt 0.294394 0.711516
vt 0.291099 0.687317
vt 0.304337 0.681578
vt 0.322081 0.683590
vt 0.340746 0.695476
vt 0.280950 0.690996
vt 0.267233 0.694793
vt 0.254393 0.707070
vt 0.247041 0.727897
vt 0.290254 0.679949
vt 0.307266 0.673514
vt 0.329154 0.676849
vt 0.277051 0.684845
vt 0.260171 0.690424
vt 0.244556 0.706025
vt 0.289209 0.671437
vt 0.310936 0.662765
vt 0.272543 0.677859
vt 0.251775 0.685241
vt 0.288034 0.660175
vt 0.267179 0.669688
vt -0.030314 0.410935
vt -0.040271 0.415303
vt 0.506130 0.769401
vt 0.095593 0.671655
vt 0.341731 0.819173
vt 0.427169 0.694095
vt 0.175400 0.540838
vt 0.180946 0.533009
vt -0.030179 0.401669
vt 0.510778 0.762170
vt 0.423042 0.700054
vt 0.419389 0.703390
vt -0.033252 0.405931
vt -0.024779 0.390962
vt 0.169467 0.552937
vt -0.037407 0.417182
vt 0.172046 0.546068
vt 0.516009 0.758702
vt 0.507008 0.766308
vt 0.501124 0.771604
vt 0.503145 0.767929
vt 0.413623 0.706287
vt 0.100137 0.668202
vt 0.247133 0.682389
vt 0.338855 0.823730
vt 0.091419 0.678308
vn 0.000000 -1.000000 0.000000
vn 0.000000 -1.000000 0.000000
vn 0.000000 -1.000000 0.000000
vn 0.000000 -1.000000 0.000000
vn 0.000000 -1.000000 0.000000
vn 0.000000 -1.000000 0.000000
vn 0.000000 -1.000000 0.000000
vn 0.000000 -1.000000 0.000000
vn 0.000000 0.000000 1.000000
vn 0.000000 0.000000 1.000000
vn 0.000000 0.000000 1.000000
vn 0.000000 0.000000 1.000000
vn -0.000000 -1.000000 0.000000
vn -0.000000 -1.000000 0.000000
vn -0.000000 -1.000000 0.000000
vn -0.000000 -1.000000 0.000000
vn -1.000000 0.000000 0.000000
vn -1.000000 0.000000 0.000000
vn -1.000000 0.000000 0.000000
vn -1.000000 0.000000 0.000000
vn 0.000000 -1.000000 0.000000
vn 0.000000 -1.000000 0.000000
vn 0.000000 -1.000000 0.000000
vn 0.000000 -1.000000 0.000000
vn 1.000000 0.000000 0.000000
vn 1.000000 0.000000 0.000000
vn 1.000000 0.000000 0.000000
vn 1.000000 0.000000 0.000000
vn 0.000000 0.000000 -1.000000
vn 0.000000 0.000000 -1.000000
vn 0.000000 0.000000 -1.000000
vn 0.000000 0.000000 -1.000000
vn -0.258492 0.957959 0.124483
vn -0.422776 0.883068 0.203598
vn -0.292570 0.883068 0.366871
vn -0.178882 0.957959 0.224311
vn -0.286904 0.957959 -0.000000
vn -0.469246 0.883068 -0.000000
vn -0.000000 1.000000 -0.000000
vn -0.104417 0.883068 0.457481
vn -0.063842 0.957959 0.279711
vn -0.581287 0.764031 0.279933
vn -0.402263 0.764031 0.504421
vn -0.258492 0.957959 -0.124483
vn -0.422776 0.883068 -0.203598
vn -0.645180 0.764031 0.000000
vn 0.104417 0.883068 0.457481
vn 0.063842 0.957959 0.279711
vn -0.143566 0.764031 0.629003
vn -0.715504 0.607722 0.344569
vn -0.495144 0.607722 0.620891
vn -0.178882 0.957959 -0.224311
vn -0.292570 0.883068 -0.366871
vn -0.581287 0.764031 -0.279933
vn -0.794150 0.607722 -0.000000
vn 0.292570 0.883068 0.366871
vn 0.178882 0.957959 0.224311
vn 0.143566 0.764031 0.629003
vn -0.176715 0.607722 0.774239
vn -0.816783 0.422077 0.393342
vn -0.565231 0.422077 0.708777
vn -0.063842 0.957959 -0.279711
vn -0.104417 0.883068 -0.457481
vn -0.402263 0.764031 -0.504422
vn -0.715504 0.607722 -0.344569
vn -0.906560 0.422077 -0.000000
vn 0.422776 0.883068 0.203598
vn 0.258492 0.957959 0.124483
vn 0.402263 0.764031 0.504422
vn 0.176715 0.607722 0.774239
vn -0.201729 0.422077 0.883831
vn -0.879660 0.216199 0.423622
vn -0.608744 0.216199 0.763341
vn 0.063842 0.957959 -0.279711
vn 0.104417 0.883068 -0.457481
vn -0.143566 0.764031 -0.629004
vn -0.495144 0.607722 -0.620892
vn -0.816782 0.422077 -0.393342
vn -0.976349 0.216199 -0.000000
vn 0.469246 0.883068 0.000000
vn 0.286904 0.957959 0.000000
vn 0.581287 0.764031 0.279933
vn 0.495144 0.607722 0.620891
vn 0.201728 0.422077 0.883831
vn -0.217258 0.216199 0.951870
vn -0.818121 0.418945 0.393909
vn -0.566079 0.419274 0.709763
vn 0.178882 0.957959 -0.224311
vn 0.292570 0.883068 -0.366871
vn 0.143566 0.764031 -0.629004
vn -0.176715 0.607722 -0.774239
vn -0.565231 0.422077 -0.708777
vn -0.879660 0.216200 -0.423622
vn -0.908201 0.418534 -0.000078
vn 0.422776 0.883068 -0.203598
vn 0.258492 0.957959 -0.124483
vn 0.645180 0.764031 -0.000000
vn 0.715504 0.607722 0.344569
vn 0.565231 0.422077 0.708777
vn 0.217258 0.216199 0.951870
vn -0.202016 0.419456 0.885012
vn -0.485581 0.842267 0.234089
vn -0.335707 0.842547 0.421208
vn 0.402263 0.764031 -0.504422
vn 0.176715 0.607722 -0.774239
vn -0.201728 0.422077 -0.883831
vn -0.608744 0.216199 -0.763341
vn -0.818401 0.418124 -0.394199
vn -0.539606 0.841918 0.000245
vn 0.581287 0.764031 -0.279933
vn 0.794150 0.607722 0.000000
vn 0.816782 0.422077 0.393342
vn 0.608744 0.216199 0.763341
vn 0.202016 0.419456 0.885012
vn -0.119748 0.842702 0.524894
vn 0.495144 0.607722 -0.620891
vn 0.201729 0.422077 -0.883831
vn -0.240567 0.268133 -0.932862
vn -0.566428 0.417794 -0.710357
vn -0.486756 0.841567 -0.234164
vn 0.715504 0.607722 -0.344569
vn 0.906560 0.422077 0.000000
vn 0.879660 0.216199 0.423622
vn 0.566079 0.419274 0.709763
vn 0.119748 0.842702 0.524894
vn 0.565231 0.422077 -0.708777
vn 0.180086 0.376155 -0.908888
vn -0.249868 0.397112 -0.883102
vn -0.337173 0.841285 -0.422556
vn 0.816782 0.422077 -0.393342
vn 0.976349 0.216199 0.000000
vn 0.818121 0.418945 0.393909
vn 0.335706 0.842547 0.421207
vn 0.598237 0.376262 -0.707489
vn 0.166991 0.383818 -0.908184
vn -0.178720 0.744303 -0.643485
vn 0.879335 0.268203 -0.393492
vn 0.908201 0.418534 -0.000078
vn 0.485580 0.842268 0.234089
vn 0.606005 0.383977 -0.696649
vn 0.170860 0.285429 -0.943047
vn 0.846071 0.397551 -0.355130
vn 0.539605 0.841918 0.000245
vn 0.630708 0.285908 -0.721432
vn 0.613721 0.745172 -0.260895
vn 0.000000 0.707106 0.707108
vn 0.000000 0.707106 0.707108
vn 0.000000 0.707106 0.707108
vn 0.000000 0.707106 0.707108
vn 0.707107 0.707107 0.000000
vn 0.707107 0.707107 0.000000
vn 0.707107 0.707107 0.000000
vn 0.707107 0.707107 0.000000
vn -0.707107 0.707107 0.000000
vn -0.707107 0.707107 0.000000
vn -0.707107 0.707107 0.000000
vn -0.707107 0.707107 0.000000
vn -0.004336 0.657228 -0.753680
vn -0.004337 0.657228 -0.753680
vn 0.000060 0.655217 -0.755441
vn -0.000110 0.655295 -0.755373
vn 0.000000 0.707105 -0.707109
vn 0.000000 0.707105 -0.707109
vn 0.000130 0.656579 -0.754257
vn 0.000130 0.656581 -0.754256
vn 0.000000 0.000000 1.000000
vn 0.000000 0.000000 1.000000
vn 0.000000 0.000000 1.000000
vn 0.000000 0.000000 1.000000
vn -1.000000 0.000000 0.000000
vn -1.000000 0.000000 0.000000
vn -1.000000 0.000000 0.000000
vn -1.000000 0.000000 0.000000
vn 1.000000 0.000000 0.000000
vn 1.000000 0.000000 0.000000
vn 1.000000 0.000000 0.000000
vn 1.000000 0.000000 0.000000
vn -0.000138 1.000000 0.000405
vn -0.000423 0.999999 0.001241
vn 0.000000 1.000000 0.000000
vn 0.000000 1.000000 0.000000
vn 0.000000 0.000000 -1.000000
vn 0.000000 0.000000 -1.000000
vn 0.000000 0.000000 -1.000000
vn -0.000228 1.000000 0.000669
vn 0.000000 1.000000 0.000000
vn 0.000000 0.000000 -1.000000
vn 0.000000 0.000000 -1.000000
vn 0.000000 0.000000 -1.000000
vn 0.000764 0.999997 -0.002244
vn 0.000000 1.000000 0.000000
vn -0.000155 1.000000 0.000456
vn 0.000823 0.999997 -0.002415
vn 0.000823 0.999997 -0.002415
vn 0.000823 0.999997 -0.002415
vn 0.000823 0.999997 -0.002415
vn 0.000823 0.999997 -0.002415
vn 0.000823 0.999997 -0.002415
vn 0.000411 0.999999 -0.001206
vn -0.000518 0.999999 0.001520
vn -0.000518 0.999999 0.001520
vn -0.000518 0.999999 0.001520
vn -0.000518 0.999999 0.001520
vn -0.000518 0.999999 0.001520
vn -0.000518 0.999999 0.001520
s off
g pCube2
usemtl initialShadingGroup
f 4/1/1 5/2/2 2/143/3 1/145/4
f 9/3/5 4/1/6 1/145/7 3/151/8
usemtl lambert2SG
f 10/4/9 11/5/10 5/2/11 4/1/12
usemtl initialShadingGroup
f 5/2/13 12/155/14 6/147/15 2/143/16
usemtl lambert2SG
f 27/20/17 10/4/18 4/1/19 9/3/20
f 27/21/21 28/22/22 11/23/23 10/24/24
f 11/5/25 28/25/26 12/155/27 5/2/28
s 1
f 9/163/29 12/19/30 28/22/31 27/21/32
s 2
usemtl initialShadingGroup
f 29/26/33 30/27/34 31/28/35 32/29/36
usemtl lambert2SG
f 33/30/37 34/31/38 30/27/34 29/26/33
f 32/29/36 35/32/39 29/26/33
usemtl initialShadingGroup
f 32/29/36 31/28/35 36/33/40 37/34/41
f 30/27/34 38/35/42 39/36/43 31/28/35
usemtl lambert2SG
f 40/37/44 41/38/45 34/31/38 33/30/37
f 29/26/33 35/39/39 33/30/37
usemtl initialShadingGroup
f 34/31/38 42/40/46 38/35/42 30/27/34
usemtl lambert2SG
f 37/34/41 35/41/39 32/29/36
usemtl initialShadingGroup
f 37/34/41 36/33/40 43/42/47 44/43/48
f 31/28/35 39/36/43 45/44/49 36/33/40
f 38/35/42 46/45/50 47/46/51 39/36/43
usemtl lambert2SG
f 48/47/52 49/48/53 41/38/45 40/37/44
f 33/30/37 35/49/39 40/37/44
usemtl initialShadingGroup
f 41/38/45 50/50/54 42/40/46 34/31/38
f 42/40/46 51/51/55 46/45/50 38/35/42
usemtl lambert2SG
f 44/43/48 35/52/39 37/34/41
usemtl initialShadingGroup
f 44/43/48 43/42/47 52/53/56 53/54/57
f 36/33/40 45/44/49 54/55/58 43/42/47
f 39/36/43 47/46/51 55/56/59 45/44/49
f 46/45/50 56/57/60 57/58/61 47/46/51
usemtl lambert2SG
f 58/59/62 59/60/63 49/48/53 48/47/52
f 40/37/44 35/61/39 48/47/52
usemtl initialShadingGroup
f 49/48/53 60/62/64 50/50/54 41/38/45
f 50/50/54 61/63/65 51/51/55 42/40/46
f 51/51/55 62/64/66 56/57/60 46/45/50
usemtl lambert2SG
f 53/54/57 35/65/39 44/43/48
usemtl initialShadingGroup
f 53/54/57 52/53/56 63/66/67 64/67/68
f 43/42/47 54/55/58 65/68/69 52/53/56
f 45/44/49 55/56/59 66/69/70 54/55/58
f 47/46/51 57/58/61 67/70/71 55/56/59
f 56/57/60 68/71/72 69/72/73 57/58/61
usemtl lambert2SG
f 70/73/74 71/74/75 59/60/63 58/59/62
f 48/47/52 35/75/39 58/59/62
usemtl initialShadingGroup
f 59/60/63 72/76/76 60/62/64 49/48/53
f 60/62/64 73/77/77 61/63/65 50/50/54
f 61/63/65 74/78/78 62/64/66 51/51/55
f 62/64/66 75/79/79 68/71/72 56/57/60
usemtl lambert2SG
f 64/67/68 35/80/39 53/54/57
f 64/67/68 63/66/67 76/81/80 77/82/81
usemtl initialShadingGroup
f 52/53/56 65/68/69 78/83/82 63/66/67
f 54/55/58 66/69/70 79/84/83 65/68/69
f 55/56/59 67/70/71 80/85/84 66/69/70
f 57/58/61 69/72/73 81/86/85 67/70/71
f 68/71/72 82/87/86 83/88/87 69/72/73
usemtl lambert2SG
f 84/89/88 85/90/89 71/74/75 70/73/74
f 58/59/62 35/91/39 70/73/74
usemtl initialShadingGroup
f 71/74/75 86/92/90 72/76/76 59/60/63
f 72/76/76 87/93/91 73/77/77 60/62/64
f 73/77/77 88/94/92 74/78/78 61/63/65
f 74/78/78 89/95/93 75/79/79 62/64/66
f 75/79/79 90/96/94 82/87/86 68/71/72
usemtl lambert2SG
f 77/82/81 35/97/39 64/67/68
f 77/82/81 76/81/80 91/98/95 92/99/96
usemtl initialShadingGroup
f 63/66/67 78/83/82 93/100/97 76/81/80
f 65/68/69 79/84/83 94/101/98 78/83/82
f 66/69/70 80/85/84 95/102/99 79/84/83
f 67/70/71 81/86/85 96/103/100 80/85/84
f 69/72/73 83/88/87 97/104/101 81/86/85
f 19/11/102 18/10/103 83/88/87 82/87/86
usemtl lambert2SG
f 92/99/96 91/98/95 85/90/89 84/89/88
f 70/73/74 35/105/39 84/89/88
usemtl initialShadingGroup
f 85/90/89 98/106/104 86/92/90 71/74/75
f 86/92/90 99/107/105 87/93/91 72/76/76
f 87/93/91 100/108/106 88/94/92 73/77/77
f 88/94/92 101/109/107 89/95/93 74/78/78
f 89/95/93 102/110/108 90/96/94 75/79/79
f 20/12/109 19/11/102 82/87/86 90/96/94
usemtl lambert2SG
f 92/99/96 35/111/39 77/82/81
usemtl initialShadingGroup
f 76/81/80 93/100/97 103/112/110 91/98/95
f 78/83/82 94/101/98 104/113/111 93/100/97
f 79/84/83 95/102/99 105/114/112 94/101/98
f 80/85/84 96/103/100 106/115/113 95/102/99
f 81/86/85 97/104/101 107/116/114 96/103/100
f 18/10/103 17/9/115 97/104/101 83/88/87
usemtl lambert2SG
f 84/89/88 35/117/39 92/99/96
usemtl initialShadingGroup
f 91/98/95 103/112/110 98/106/104 85/90/89
f 98/106/104 108/118/116 99/107/105 86/92/90
f 99/107/105 109/119/117 100/108/106 87/93/91
f 100/108/106 110/120/118 101/109/107 88/94/92
f 101/109/107 111/121/119 102/110/108 89/95/93
f 21/13/120 20/12/109 90/96/94 102/110/108
f 93/100/97 104/113/111 112/122/121 103/112/110
f 94/101/98 105/114/112 113/123/122 104/113/111
f 95/102/99 106/115/113 114/124/123 105/114/112
f 96/103/100 107/116/114 115/125/124 106/115/113
f 17/9/115 16/8/125 107/116/114 97/104/101
f 103/112/110 112/122/121 108/118/116 98/106/104
f 108/118/116 116/126/126 109/119/117 99/107/105
f 109/119/117 117/127/127 110/120/118 100/108/106
f 110/120/118 118/128/128 111/121/119 101/109/107
f 22/14/129 21/13/120 102/110/108 111/121/119
f 104/113/111 113/123/122 119/129/130 112/122/121
f 105/114/112 114/124/123 120/130/131 113/123/122
f 106/115/113 115/125/124 121/131/132 114/124/123
f 16/8/125 15/7/133 115/125/124 107/116/114
f 112/122/121 119/129/130 116/126/126 108/118/116
f 116/126/126 122/132/134 117/127/127 109/119/117
f 117/127/127 123/133/135 118/128/128 110/120/118
f 23/15/136 22/14/129 111/121/119 118/128/128
f 113/123/122 120/130/131 124/134/137 119/129/130
f 114/124/123 121/131/132 125/135/138 120/130/131
f 15/7/133 14/6/139 121/131/132 115/125/124
f 119/129/130 124/134/137 122/132/134 116/126/126
f 122/132/134 126/136/140 123/133/135 117/127/127
f 24/16/141 23/15/136 118/128/128 123/133/135
f 120/130/131 125/135/138 127/137/142 124/134/137
f 14/6/139 13/161/143 125/135/138 121/131/132
f 124/134/137 127/137/142 126/136/140 122/132/134
f 25/17/144 24/16/141 123/133/135 126/136/140
f 13/161/143 26/18/145 127/137/142 125/135/138
f 26/18/145 25/17/144 126/136/140 127/137/142
s off
f 128/148/146 129/149/147 131/154/148 130/144/149
f 129/149/150 128/148/151 135/156/152 134/158/153
f 130/144/154 131/154/155 133/138/156 132/146/157
s 3
f 132/146/158 133/138/159 137/139/160 136/150/161
f 134/158/162 135/156/163 139/140/164 138/157/165
f 136/141/161 137/160/160 138/142/165 139/162/164
s off
f 1/145/166 2/143/167 128/148/168 130/144/169
f 3/151/170 1/145/171 130/144/172 132/146/173
f 2/143/174 6/147/175 135/156/176 128/148/177
s 4
f 7/159/178 8/152/179 131/154/180 129/149/181
s 1
f 136/150/182 9/3/29 3/151/183 132/146/184
s 4
f 8/152/179 137/153/185 133/138/186 131/154/180
s 1
f 12/155/30 139/140/187 135/156/188 6/147/189
s 4
f 138/157/190 7/159/178 129/149/181 134/158/191
f 7/159/178 138/142/190 137/160/185 13/161/192 14/6/193 15/7/194 16/8/195 17/9/196 18/10/197 19/11/198 20/12/199
f 8/152/179 7/159/178 20/12/199 21/13/200 22/14/201 23/15/202 24/16/203 25/17/204 26/18/205 13/161/192 137/160/185
s 1
f 136/141/182 139/162/187 12/19/30 9/163/29
