# This file uses centimeters as units for non-parametric coordinates.

mtllib Lamp_TL.mtl
g default
v 1.516228 0.136424 -0.044327
v 1.516228 0.116050 -0.084315
v 1.516228 0.084315 -0.116050
v 1.516228 0.044327 -0.136424
v 1.516228 -0.000000 -0.143445
v 1.516228 -0.000000 0.143445
v 1.516228 0.044327 0.136424
v 1.516228 0.084315 0.116050
v 1.516228 0.116050 0.084315
v 1.516228 0.136424 0.044327
v 1.516228 0.143445 0.000000
v -1.516228 0.136424 -0.044327
v -1.516228 0.116050 -0.084315
v -1.516228 0.084315 -0.116050
v -1.516228 0.044327 -0.136424
v -1.516228 0.000000 -0.143445
v -1.516228 -0.000000 0.143445
v -1.516228 0.044327 0.136424
v -1.516228 0.084315 0.116050
v -1.516228 0.116050 0.084315
v -1.516228 0.136424 0.044327
v -1.516228 0.143445 0.000000
v 1.516228 -0.000000 0.000000
v -1.516228 0.000000 0.000000
v -1.212983 -0.000000 0.143445
v -1.212983 0.044327 0.136424
v -1.212983 0.084315 0.116050
v -1.212983 0.116050 0.084315
v -1.212983 0.136424 0.044327
v -1.212983 0.143445 0.000000
v -1.212983 0.136424 -0.044327
v -1.212983 0.116050 -0.084315
v -1.212983 0.084315 -0.116050
v -1.212983 0.044327 -0.136424
v -1.212983 0.000000 -0.143445
v 1.243307 -0.000000 0.143445
v 1.243307 0.044327 0.136424
v 1.243307 0.084315 0.116050
v 1.243307 0.116050 0.084315
v 1.243307 0.136424 0.044327
v 1.243307 0.143445 0.000000
v 1.243307 0.136424 -0.044327
v 1.243307 0.116050 -0.084315
v 1.243307 0.084315 -0.116050
v 1.243307 0.044327 -0.136424
v 1.243307 -0.000000 -0.143445
v -1.212983 0.158491 -0.054936
v -1.212983 0.131168 -0.104494
v -1.516228 0.131168 -0.104494
v -1.516228 0.158491 -0.054936
v -1.212983 0.088610 -0.143823
v -1.516228 0.088610 -0.143823
v -1.212983 0.034984 -0.169074
v -1.516228 0.034984 -0.169074
v -1.212983 -0.024461 -0.177775
v -1.516228 -0.024461 -0.177775
v -1.212983 -0.024461 0.177775
v -1.212983 0.034984 0.169074
v -1.516228 0.034984 0.169074
v -1.516228 -0.024461 0.177775
v -1.212983 0.088610 0.143823
v -1.516228 0.088610 0.143823
v -1.212983 0.131167 0.104494
v -1.516228 0.131167 0.104494
v -1.212983 0.158491 0.054935
v -1.516228 0.158491 0.054935
v -1.212983 0.167906 0.000000
v -1.516228 0.167906 0.000000
v 1.516228 -0.024461 0.177775
v 1.516228 0.034984 0.169074
v 1.243307 0.034984 0.169074
v 1.243307 -0.024461 0.177775
v 1.516228 0.088610 0.143823
v 1.243307 0.088610 0.143823
v 1.516228 0.131167 0.104494
v 1.243307 0.131167 0.104494
v 1.516228 0.158491 0.054935
v 1.243307 0.158491 0.054935
v 1.516228 0.167906 0.000000
v 1.243307 0.167906 0.000000
v 1.516228 0.158491 -0.054936
v 1.243307 0.158491 -0.054936
v 1.516228 0.131168 -0.104494
v 1.243307 0.131167 -0.104494
v 1.516228 0.088610 -0.143823
v 1.243307 0.088610 -0.143823
v 1.516228 0.034984 -0.169074
v 1.243307 0.034984 -0.169074
v 1.516228 -0.024461 -0.177775
v 1.243307 -0.024461 -0.177775
vt 0.729254 0.349917
vt 0.708047 0.307759
vt 0.674870 0.274275
vt 0.632939 0.252665
vt 0.586379 0.244987
vt 0.585128 0.546881
vt 0.631769 0.539576
vt 0.673956 0.518263
vt 0.707478 0.484937
vt 0.729039 0.443012
vt 0.736616 0.396391
vt 0.751917 0.161729
vt 0.780713 0.161478
vt 0.739423 0.166410
vt 0.749542 0.167264
vt 0.798659 0.183749
vt 0.809550 0.166490
vt 0.855249 0.133069
vt 0.875278 0.129160
vt 0.875381 0.124117
vt 0.888957 0.124371
vt 0.887484 0.121893
vt 0.910421 0.125222
vt 0.767486 0.895633
vt 0.783693 0.897191
vt 0.829546 0.905753
vt 0.781980 0.892959
vt 0.825977 0.860113
vt 0.858452 0.883606
vt 0.897831 0.905586
vt 0.915217 0.907047
vt 0.928931 0.908638
vt 0.938129 0.909826
vt 0.932393 0.913893
vt 0.960315 0.906825
vt 0.737955 0.677646
vt 0.719089 0.640181
vt 0.689555 0.610344
vt 0.652213 0.591074
vt 0.610703 0.584290
vt 0.609535 0.853121
vt 0.651157 0.846704
vt 0.688760 0.827707
vt 0.718633 0.798000
vt 0.737837 0.760515
vt 0.744534 0.719182
vt 0.585757 0.395937
vt 0.610119 0.718621
vt 0.879444 0.821876
vt 0.892597 0.821884
vt 0.905579 0.822526
vt 0.918397 0.823416
vt 0.931303 0.824532
vt 0.944237 0.825717
vt 0.956933 0.826825
vt 0.767129 0.808391
vt 0.779579 0.805122
vt 0.792634 0.801893
vt 0.805077 0.799279
vt 0.817785 0.797433
vt 0.843959 0.208874
vt 0.856950 0.207462
vt 0.869485 0.205681
vt 0.881912 0.203773
vt 0.894488 0.201625
vt 0.907144 0.199170
vt 0.919840 0.196752
vt 0.749126 0.238320
vt 0.761977 0.240353
vt 0.775432 0.242369
vt 0.788279 0.243641
vt 0.801537 0.244255
vt 0.725765 0.826453
vt 0.745579 0.820546
vt 0.749690 0.888857
vt 0.726393 0.886272
vt 0.763470 0.815806
vt 0.771904 0.892203
vt 0.781619 0.811502
vt 0.791543 0.883236
vt 0.802348 0.807277
vt 0.810561 0.866430
vt 0.891984 0.829533
vt 0.910643 0.830091
vt 0.891926 0.899509
vt 0.873628 0.886735
vt 0.926988 0.830814
vt 0.913934 0.901675
vt 0.943206 0.832028
vt 0.934715 0.902992
vt 0.960553 0.833738
vt 0.953897 0.902504
vt 0.977624 0.835509
vt 0.971544 0.900946
vt 0.996508 0.838457
vt 0.993935 0.898300
vt 0.826063 0.158963
vt 0.848775 0.140155
vt 0.871594 0.197825
vt 0.854677 0.199449
vt 0.871008 0.134875
vt 0.887407 0.195788
vt 0.892140 0.130399
vt 0.902790 0.193589
vt 0.910248 0.130957
vt 0.919504 0.190538
vt 0.927323 0.131342
vt 0.938381 0.186427
vt 0.948175 0.132850
vt 0.960394 0.179750
vt 0.709182 0.165157
vt 0.728692 0.165599
vt 0.724533 0.227958
vt 0.705891 0.224535
vt 0.746140 0.175872
vt 0.744355 0.231526
vt 0.762641 0.173872
vt 0.762479 0.233804
vt 0.783293 0.183397
vt 0.784879 0.236168
vn 0.000000 0.943390 -0.331686
vn 0.000000 0.786140 -0.618048
vn 0.000000 0.786140 -0.618048
vn 0.000000 0.943390 -0.331686
vn 0.000000 0.557434 -0.830221
vn 0.000000 0.557434 -0.830221
vn 0.000000 0.287587 -0.957755
vn 0.000000 0.287587 -0.957755
vn 0.000000 0.144827 -0.989457
vn 0.000000 0.144827 -0.989457
vn 0.000000 0.144827 0.989457
vn 0.000000 0.287587 0.957755
vn 0.000000 0.287587 0.957755
vn 0.000000 0.144827 0.989457
vn 0.000000 0.557434 0.830221
vn 0.000000 0.557434 0.830221
vn 0.000000 0.786140 0.618048
vn 0.000000 0.786140 0.618048
vn 0.000000 0.943390 0.331687
vn 0.000000 0.943390 0.331687
vn 0.000000 1.000000 0.000001
vn 0.000000 1.000000 0.000001
vn 1.000000 -0.000000 0.000000
vn 1.000000 -0.000000 0.000000
vn 1.000000 -0.000000 0.000000
vn 1.000000 -0.000000 0.000000
vn 1.000000 -0.000000 0.000000
vn 1.000000 -0.000000 0.000000
vn 1.000000 -0.000000 0.000000
vn 1.000000 -0.000000 0.000000
vn 1.000000 -0.000000 0.000000
vn 1.000000 -0.000000 0.000000
vn 1.000000 -0.000000 0.000000
vn 1.000000 -0.000000 0.000000
vn -1.000000 0.000000 0.000000
vn -1.000000 0.000000 0.000000
vn -1.000000 0.000000 -0.000000
vn -1.000000 0.000000 0.000000
vn -1.000000 0.000000 0.000000
vn -1.000000 0.000000 0.000000
vn -1.000000 0.000000 -0.000000
vn -1.000000 0.000000 -0.000000
vn -1.000000 0.000000 0.000000
vn -1.000000 0.000000 0.000000
vn -1.000000 0.000000 0.000000
vn -1.000000 0.000000 0.000000
vn 0.000000 0.156435 0.987688
vn 0.000000 0.309017 0.951057
vn 0.000000 0.309017 0.951057
vn 0.000000 0.156435 0.987688
vn 0.000000 0.587785 0.809017
vn 0.000000 0.587785 0.809017
vn 0.000000 0.809017 0.587785
vn 0.000000 0.809017 0.587785
vn 0.000000 0.951057 0.309017
vn 0.000000 0.951057 0.309017
vn 0.000000 1.000000 0.000001
vn 0.000000 1.000000 0.000001
vn 0.000000 0.951057 -0.309016
vn 0.000000 0.951057 -0.309016
vn 0.000000 0.809017 -0.587785
vn 0.000000 0.809017 -0.587785
vn 0.000000 0.587785 -0.809017
vn 0.000000 0.587785 -0.809017
vn 0.000000 0.309017 -0.951057
vn 0.000000 0.309017 -0.951057
vn 0.000000 0.156434 -0.987688
vn 0.000000 0.156434 -0.987688
vn 0.000000 0.144827 0.989457
vn -0.000000 0.287587 0.957755
vn -0.000000 0.287587 0.957755
vn 0.000000 0.144827 0.989457
vn -0.000000 0.557434 0.830221
vn -0.000000 0.557434 0.830221
vn -0.000000 0.786140 0.618048
vn -0.000000 0.786140 0.618048
vn 0.000000 0.943389 0.331687
vn 0.000000 0.943389 0.331687
vn 0.000000 1.000000 0.000001
vn 0.000000 1.000000 0.000001
vn -0.000000 0.943390 -0.331686
vn -0.000000 0.943390 -0.331686
vn -0.000000 0.786140 -0.618048
vn -0.000000 0.786140 -0.618049
vn -0.000000 0.557434 -0.830221
vn -0.000000 0.557434 -0.830221
vn -0.000000 0.287587 -0.957755
vn -0.000000 0.287587 -0.957755
vn -0.000000 0.144827 -0.989457
vn -0.000000 0.144827 -0.989457
vn 1.000000 -0.000000 -0.000001
vn 1.000000 -0.000000 -0.000001
vn 1.000000 -0.000000 -0.000001
vn 1.000000 -0.000000 -0.000001
vn -1.000000 0.000000 0.000000
vn -1.000000 0.000000 0.000000
vn -1.000000 0.000000 0.000000
vn -1.000000 0.000000 0.000000
vn 1.000000 -0.000000 -0.000001
vn 1.000000 -0.000000 -0.000001
vn 1.000000 -0.000000 -0.000001
vn 1.000000 -0.000000 -0.000001
vn -1.000000 0.000000 0.000000
vn -1.000000 0.000000 0.000000
vn -1.000000 0.000000 0.000000
vn -1.000000 0.000000 0.000000
vn 1.000000 -0.000000 0.000002
vn 1.000000 -0.000000 0.000002
vn 1.000000 -0.000000 0.000002
vn 1.000000 -0.000000 0.000002
vn -1.000000 0.000000 0.000000
vn -1.000000 0.000000 0.000000
vn -1.000000 0.000000 0.000000
vn -1.000000 0.000000 0.000000
vn 1.000000 -0.000000 -0.000001
vn 1.000000 -0.000000 -0.000001
vn 1.000000 -0.000000 -0.000001
vn 1.000000 -0.000000 -0.000001
vn -0.000000 -0.814407 0.580294
vn -0.000000 -0.814407 0.580294
vn -0.000000 -0.814407 0.580294
vn -0.000000 -0.814407 0.580294
vn -1.000000 0.000000 0.000002
vn -1.000000 0.000000 0.000002
vn -1.000000 0.000000 0.000002
vn -1.000000 0.000000 0.000002
vn 1.000000 -0.000000 0.000002
vn 1.000000 -0.000000 0.000002
vn 1.000000 -0.000000 0.000002
vn 1.000000 -0.000000 0.000002
vn -1.000000 0.000000 0.000000
vn -1.000000 0.000000 0.000000
vn -1.000000 0.000000 0.000000
vn -1.000000 0.000000 0.000000
vn -0.000000 -0.814407 -0.580294
vn -0.000000 -0.814407 -0.580294
vn -0.000000 -0.814407 -0.580294
vn -0.000000 -0.814407 -0.580294
vn 1.000000 -0.000000 -0.000003
vn 1.000000 -0.000000 -0.000003
vn 1.000000 -0.000000 -0.000003
vn 1.000000 -0.000000 -0.000003
vn -1.000000 0.000000 0.000000
vn -1.000000 0.000000 0.000000
vn -1.000000 0.000000 0.000000
vn -1.000000 0.000000 0.000000
vn 1.000000 -0.000000 0.000000
vn 1.000000 -0.000000 0.000000
vn 1.000000 -0.000000 0.000000
vn 1.000000 -0.000000 0.000000
vn -1.000000 0.000000 0.000000
vn -1.000000 0.000000 0.000000
vn -1.000000 0.000000 0.000000
vn -1.000000 0.000000 0.000000
vn 1.000000 -0.000000 0.000000
vn 1.000000 -0.000000 0.000000
vn 1.000000 -0.000000 0.000000
vn 1.000000 -0.000000 0.000000
vn -1.000000 0.000000 0.000000
vn -1.000000 0.000000 0.000000
vn -1.000000 0.000000 0.000000
vn -1.000000 0.000000 0.000000
vn 1.000000 -0.000000 -0.000001
vn 1.000000 -0.000000 -0.000001
vn 1.000000 -0.000000 -0.000001
vn 1.000000 -0.000000 -0.000001
vn -1.000000 0.000000 0.000000
vn -1.000000 0.000000 0.000000
vn -1.000000 0.000000 0.000000
vn -1.000000 0.000000 0.000000
vn 1.000000 -0.000000 0.000000
vn 1.000000 -0.000000 0.000000
vn 1.000000 -0.000000 0.000000
vn 1.000000 -0.000000 0.000000
vn -1.000000 0.000000 0.000000
vn -1.000000 0.000000 0.000000
vn -1.000000 0.000000 0.000000
vn -1.000000 0.000000 0.000000
vn 1.000000 -0.000000 -0.000002
vn 1.000000 -0.000000 -0.000002
vn 1.000000 -0.000000 -0.000002
vn 1.000000 -0.000000 -0.000002
vn -1.000000 0.000000 0.000000
vn -1.000000 0.000000 0.000000
vn -1.000000 0.000000 0.000000
vn -1.000000 0.000000 0.000000
vn -0.000000 -0.814407 -0.580294
vn -0.000000 -0.814407 -0.580294
vn -0.000000 -0.814407 -0.580294
vn -0.000000 -0.814407 -0.580294
vn 1.000000 -0.000000 0.000000
vn 1.000000 -0.000000 0.000000
vn 1.000000 -0.000000 0.000000
vn 1.000000 -0.000000 0.000000
vn -1.000000 0.000000 0.000001
vn -1.000000 0.000000 0.000001
vn -1.000000 0.000000 0.000001
vn -1.000000 0.000000 0.000001
vn 1.000000 -0.000000 0.000000
vn 1.000000 -0.000000 0.000000
vn 1.000000 -0.000000 0.000000
vn 1.000000 -0.000000 0.000000
vn -1.000000 0.000000 -0.000001
vn -1.000000 0.000000 -0.000001
vn -1.000000 0.000000 -0.000001
vn -1.000000 0.000000 -0.000001
vn 1.000000 -0.000000 0.000000
vn 1.000000 -0.000000 0.000000
vn 1.000000 -0.000000 0.000000
vn 1.000000 -0.000000 0.000000
vn -1.000000 0.000000 0.000000
vn -1.000000 0.000000 0.000000
vn -1.000000 0.000000 0.000000
vn -1.000000 0.000000 0.000000
vn 1.000000 -0.000000 0.000000
vn 1.000000 -0.000000 0.000000
vn 1.000000 -0.000000 0.000000
vn 1.000000 -0.000000 0.000000
vn -1.000000 0.000000 0.000000
vn -1.000000 0.000000 0.000000
vn -1.000000 0.000000 0.000000
vn -1.000000 0.000000 0.000000
vn 1.000000 -0.000000 0.000000
vn 1.000000 -0.000000 0.000000
vn 1.000000 -0.000000 0.000000
vn 1.000000 -0.000000 0.000000
vn -1.000000 0.000000 0.000000
vn -1.000000 0.000000 0.000000
vn -1.000000 0.000000 0.000000
vn -1.000000 0.000000 0.000000
vn 1.000000 -0.000000 0.000000
vn 1.000000 -0.000000 0.000000
vn 1.000000 -0.000000 0.000000
vn 1.000000 -0.000000 0.000000
vn -1.000000 0.000000 -0.000003
vn -1.000000 0.000000 -0.000003
vn -1.000000 0.000000 -0.000003
vn -1.000000 0.000000 -0.000003
vn 1.000000 -0.000000 0.000000
vn 1.000000 -0.000000 0.000000
vn 1.000000 -0.000000 0.000000
vn 1.000000 -0.000000 0.000000
vn -1.000000 0.000000 -0.000001
vn -1.000000 0.000000 -0.000001
vn -1.000000 0.000000 -0.000001
vn -1.000000 0.000000 -0.000001
vn 1.000000 -0.000000 0.000000
vn 1.000000 -0.000000 0.000000
vn 1.000000 -0.000000 0.000000
vn 1.000000 -0.000000 0.000000
vn -1.000000 0.000000 0.000000
vn -1.000000 0.000000 0.000000
vn -1.000000 0.000000 0.000000
vn -1.000000 0.000000 0.000000
vn 1.000000 -0.000000 0.000004
vn 1.000000 -0.000000 0.000004
vn 1.000000 -0.000000 0.000004
vn 1.000000 -0.000000 0.000004
vn -0.000000 -0.814407 0.580294
vn -0.000000 -0.814407 0.580294
vn -0.000000 -0.814407 0.580294
vn -0.000000 -0.814407 0.580294
vn -1.000000 0.000000 0.000002
vn -1.000000 0.000000 0.000002
vn -1.000000 0.000000 0.000002
vn -1.000000 0.000000 0.000002
s 1
g lichtbuis
usemtl initialShadingGroup
f 47/73/1 48/74/2 49/75/3 50/76/4
f 48/74/2 51/77/5 52/78/6 49/75/3
f 51/77/5 53/79/7 54/80/8 52/78/6
f 53/79/7 55/81/9 56/82/10 54/80/8
f 57/83/11 58/84/12 59/85/13 60/86/14
f 58/84/12 61/87/15 62/88/16 59/85/13
f 61/87/15 63/89/17 64/90/18 62/88/16
f 63/89/17 65/91/19 66/92/20 64/90/18
f 65/91/19 67/93/21 68/94/22 66/92/20
f 67/93/21 47/95/1 50/96/4 68/94/22
s 3
f 2/2/23 1/1/24 23/47/25
f 3/3/26 2/2/23 23/47/25
f 4/4/27 3/3/26 23/47/25
f 5/5/28 4/4/27 23/47/25
f 7/7/29 6/6/30 23/47/25
f 8/8/31 7/7/29 23/47/25
f 9/9/32 8/8/31 23/47/25
f 10/10/33 9/9/32 23/47/25
f 11/11/34 10/10/33 23/47/25
f 1/1/24 11/11/34 23/47/25
s 5
f 12/45/35 13/44/36 24/48/37
f 13/44/36 14/43/38 24/48/37
f 14/43/38 15/42/39 24/48/37
f 15/42/39 16/41/40 24/48/37
f 17/40/41 18/39/42 24/48/37
f 18/39/42 19/38/43 24/48/37
f 19/38/43 20/37/44 24/48/37
f 20/37/44 21/36/45 24/48/37
f 21/36/45 22/46/46 24/48/37
f 22/46/46 12/45/35 24/48/37
s 7
usemtl lambert2SG
f 36/61/47 37/62/48 26/50/49 25/49/50
f 37/62/48 38/63/51 27/51/52 26/50/49
f 38/63/51 39/64/53 28/52/54 27/51/52
f 39/64/53 40/65/55 29/53/56 28/52/54
f 40/65/55 41/66/57 30/54/58 29/53/56
f 41/66/57 42/67/59 31/55/60 30/54/58
f 42/68/59 43/69/61 32/57/62 31/56/60
f 43/69/61 44/70/63 33/58/64 32/57/62
f 44/70/63 45/71/65 34/59/66 33/58/64
f 45/71/65 46/72/67 35/60/68 34/59/66
s 8
usemtl initialShadingGroup
f 69/97/69 70/98/70 71/99/71 72/100/72
f 70/98/70 73/101/73 74/102/74 71/99/71
f 73/101/73 75/103/75 76/104/76 74/102/74
f 75/103/75 77/105/77 78/106/78 76/104/76
f 77/105/77 79/107/79 80/108/80 78/106/78
f 79/107/79 81/109/81 82/110/82 80/108/80
f 81/111/81 83/112/83 84/113/84 82/114/82
f 83/112/83 85/115/85 86/116/86 84/113/84
f 85/115/85 87/117/87 88/118/88 86/116/86
f 87/117/87 89/119/89 90/120/90 88/118/88
s off
f 31/56/91 32/57/92 48/74/93 47/73/94
f 13/25/95 12/24/96 50/76/97 49/75/98
f 32/57/99 33/58/100 51/77/101 48/74/102
f 14/26/103 13/25/104 49/75/105 52/78/106
f 33/58/107 34/59/108 53/79/109 51/77/110
f 15/27/111 14/26/112 52/78/113 54/80/114
f 34/59/115 35/60/116 55/81/117 53/79/118
f 35/60/119 16/28/120 56/82/121 55/81/122
f 16/28/123 15/27/124 54/80/125 56/82/126
f 25/49/127 26/50/128 58/84/129 57/83/130
f 18/30/131 17/29/132 60/86/133 59/85/134
f 17/29/135 25/49/136 57/83/137 60/86/138
f 26/50/139 27/51/140 61/87/141 58/84/142
f 19/31/143 18/30/144 59/85/145 62/88/146
f 27/51/147 28/52/148 63/89/149 61/87/150
f 20/32/151 19/31/152 62/88/153 64/90/154
f 28/52/155 29/53/156 65/91/157 63/89/158
f 21/33/159 20/32/160 64/90/161 66/92/162
f 29/53/163 30/54/164 67/93/165 65/91/166
f 22/34/167 21/33/168 66/92/169 68/94/170
f 30/54/171 31/55/172 47/95/173 67/93/174
f 12/35/175 22/34/176 68/94/177 50/96/178
f 6/17/179 7/18/180 70/98/181 69/97/182
f 37/62/183 36/61/184 72/100/185 71/99/186
f 36/61/187 6/17/188 69/97/189 72/100/190
f 7/18/191 8/19/192 73/101/193 70/98/194
f 38/63/195 37/62/196 71/99/197 74/102/198
f 8/19/199 9/20/200 75/103/201 73/101/202
f 39/64/203 38/63/204 74/102/205 76/104/206
f 9/20/207 10/21/208 77/105/209 75/103/210
f 40/65/211 39/64/212 76/104/213 78/106/214
f 10/21/215 11/22/216 79/107/217 77/105/218
f 41/66/219 40/65/220 78/106/221 80/108/222
f 11/22/223 1/23/224 81/109/225 79/107/226
f 42/67/227 41/66/228 80/108/229 82/110/230
f 1/12/231 2/13/232 83/112/233 81/111/234
f 43/69/235 42/68/236 82/114/237 84/113/238
f 2/13/239 3/14/240 85/115/241 83/112/242
f 44/70/243 43/69/244 84/113/245 86/116/246
f 3/14/247 4/15/248 87/117/249 85/115/250
f 45/71/251 44/70/252 86/116/253 88/118/254
f 4/15/255 5/16/256 89/119/257 87/117/258
f 5/16/259 46/72/260 90/120/261 89/119/262
f 46/72/263 45/71/264 88/118/265 90/120/266
g default
v -1.510122 -0.039432 0.176718
v 1.510122 -0.039432 0.176718
v -1.510122 0.039432 0.176718
v 1.510122 0.039432 0.176718
v -1.510122 0.039432 -0.176718
v 1.510122 0.039432 -0.176718
v -1.510122 -0.039432 -0.176718
v 1.510122 -0.039432 -0.176718
vt 0.603001 0.164305
vt 0.218209 0.869560
vt 0.584614 0.154271
vt 0.199794 0.859511
vt 0.502083 0.109237
vt 0.117266 0.814482
vt 0.483668 0.099189
vt 0.098851 0.804434
vt 0.401137 0.054157
vt 0.016320 0.759402
vt 0.173149 0.952092
vt 0.154735 0.942038
vt 0.647997 0.081859
vt 0.629601 0.071820
vn 0.000000 0.000000 1.000000
vn 0.000000 0.000000 1.000000
vn 0.000000 0.000000 1.000000
vn 0.000000 0.000000 1.000000
vn 0.000000 1.000000 0.000000
vn 0.000000 1.000000 0.000000
vn 0.000000 1.000000 0.000000
vn 0.000000 1.000000 0.000000
vn 0.000000 0.000000 -1.000000
vn 0.000000 0.000000 -1.000000
vn 0.000000 0.000000 -1.000000
vn 0.000000 0.000000 -1.000000
vn 0.000000 -1.000000 0.000000
vn 0.000000 -1.000000 0.000000
vn 0.000000 -1.000000 0.000000
vn 0.000000 -1.000000 0.000000
vn 1.000000 0.000000 0.000000
vn 1.000000 0.000000 0.000000
vn 1.000000 0.000000 0.000000
vn 1.000000 0.000000 0.000000
vn -1.000000 0.000000 0.000000
vn -1.000000 0.000000 0.000000
vn -1.000000 0.000000 0.000000
vn -1.000000 0.000000 0.000000
s off
g balk
usemtl initialShadingGroup
f 91/121/267 92/122/268 94/124/269 93/123/270
f 93/123/271 94/124/272 96/126/273 95/125/274
f 95/125/275 96/126/276 98/128/277 97/127/278
f 97/127/279 98/128/280 92/130/281 91/129/282
f 92/122/283 98/131/284 96/132/285 94/124/286
f 97/133/287 91/121/288 93/123/289 95/134/290
